<?xml version="1.0" standalone="no"?>
<!DOCTYPE svg PUBLIC "-//W3C//DTD SVG 20010904//EN"
 "http://www.w3.org/TR/2001/REC-SVG-20010904/DTD/svg10.dtd">
<svg version="1.0" xmlns="http://www.w3.org/2000/svg"
 width="500.000000pt" height="500.000000pt" viewBox="0 0 500.000000 500.000000"
 preserveAspectRatio="xMidYMid meet">

<g transform="translate(0.000000,500.000000) scale(0.100000,-0.100000)"
fill="#000000" stroke="none">
<path d="M2175 4398 c-3 -7 -6 -140 -7 -296 -2 -204 0 -282 8 -282 14 0 36 25
28 33 -3 3 0 15 6 27 9 18 19 21 46 18 l34 -4 2 111 c2 179 3 185 10 185 5 0
585 -330 1463 -833 l149 -86 -3 -578 c-1 -318 -4 -580 -6 -581 -2 -2 -115 60
-250 138 -136 78 -249 139 -252 137 -2 -3 111 -71 253 -152 194 -110 259 -143
265 -133 5 7 9 54 10 103 1 74 2 84 10 57 5 -18 14 -30 19 -27 6 4 11 -2 11
-12 1 -10 5 -2 9 17 5 23 8 28 9 13 0 -14 7 -23 17 -23 10 0 14 -6 10 -15 -3
-8 -1 -15 4 -15 5 0 10 -12 12 -27 2 -16 7 236 12 559 5 411 5 592 -3 606 -9
16 -1837 1072 -1856 1072 -3 0 -8 -6 -10 -12z"/>
<path d="M2248 3853 c-10 -3 -18 -10 -18 -18 0 -7 -12 -16 -26 -19 -16 -4 -24
-12 -21 -21 3 -7 -1 -16 -9 -19 -10 -4 -13 -2 -8 7 4 6 -5 1 -19 -12 -15 -14
-27 -19 -27 -12 0 7 -5 9 -11 6 -6 -5 -5 -11 6 -18 13 -10 12 -12 -10 -13 -14
-1 -23 2 -20 6 3 5 1 11 -4 15 -6 3 -8 -3 -6 -14 4 -24 -34 -52 -64 -46 -12 2
-19 0 -16 -6 4 -5 11 -7 16 -4 5 4 9 2 9 -3 0 -6 -7 -12 -15 -16 -8 -3 -15 -1
-15 5 0 6 -5 7 -10 4 -6 -4 -8 -10 -5 -15 8 -13 -42 -43 -57 -34 -10 5 -10 4
-2 -5 9 -10 35 1 118 49 58 34 104 66 101 70 -3 4 1 10 8 13 14 5 21 -46 21
-151 0 -23 3 -41 6 -39 3 1 31 16 62 32 l57 29 3 55 3 56 18 -37 c19 -42 20
-43 46 -26 16 10 42 -3 182 -94 90 -57 175 -110 189 -117 l25 -12 -25 21 c-14
11 -37 28 -52 37 -16 10 -28 23 -28 31 0 9 -7 11 -22 7 -16 -4 -19 -3 -9 3 11
8 9 15 -10 41 -23 31 -57 38 -51 10 2 -8 0 -10 -4 -6 -13 13 -13 38 1 43 9 4
2 17 -21 42 -19 20 -37 45 -40 55 -4 14 -9 16 -20 6 -11 -9 -14 -7 -14 10 0
11 -5 21 -10 21 -17 0 -29 43 -16 59 9 12 8 12 -9 1 -15 -8 -20 -21 -19 -43 4
-51 -6 -62 -27 -28 -17 28 -29 36 -51 32 -5 0 -8 4 -8 10 0 8 -4 9 -13 0 -8
-6 -17 -8 -20 -4 -4 3 -7 0 -7 -7 0 -7 -3 -11 -6 -8 -3 3 0 15 8 27 10 17 10
23 -2 34 -8 8 -23 12 -32 10z m232 -138 c-7 -8 -17 -15 -23 -15 -6 0 -2 7 9
15 25 19 30 19 14 0z"/>
<path d="M1875 3590 c-16 -11 -25 -20 -20 -20 10 0 64 39 55 40 -3 0 -18 -9
-35 -20z"/>
<path d="M2901 3472 c-2 -102 1 -120 16 -134 44 -38 234 -148 245 -142 6 4 8
3 5 -3 -6 -10 6 -20 96 -77 l27 -18 -1 33 c0 25 -2 29 -8 16 -7 -20 -25 -24
-27 -7 -3 23 -5 24 -13 11 -8 -12 -12 -10 -22 12 -6 14 -15 25 -18 22 -4 -2
-13 6 -20 17 -11 18 -11 20 3 15 30 -12 16 2 -19 19 -19 9 -35 20 -35 25 0 5
-7 9 -15 9 -8 0 -15 5 -15 11 0 5 6 7 13 4 6 -4 -3 7 -20 23 -18 15 -33 34
-33 40 0 7 -5 11 -12 10 -6 -2 -20 13 -29 33 -10 20 -34 50 -53 67 -20 17 -36
38 -36 47 0 8 -4 15 -10 15 -5 0 -10 12 -10 26 0 19 4 25 15 20 21 -8 19 1 -4
13 -18 10 -19 5 -20 -107z"/>
<path d="M2425 3547 c-6 -18 -9 -42 -7 -54 4 -27 33 -39 45 -18 7 14 15 12 63
-14 29 -17 55 -31 57 -31 2 0 2 12 -1 28 -3 26 -12 33 -122 105 -25 16 -25 16
-35 -16z"/>
<path d="M2240 3538 c-19 -12 -37 -23 -38 -24 -2 -1 2 -52 9 -113 l12 -110 28
16 c16 10 30 28 33 46 9 43 7 207 -1 207 -5 0 -24 -10 -43 -22z"/>
<path d="M1605 3500 c4 -7 25 -28 47 -48 57 -52 109 -155 111 -219 0 -9 6 -9
20 -1 14 7 17 7 13 -1 -4 -6 0 -11 8 -11 9 0 16 -4 16 -8 0 -5 7 -9 15 -9 9 0
13 7 11 16 -3 9 -8 39 -11 66 -10 78 -43 136 -90 160 -22 11 -49 28 -59 38
-11 9 -25 17 -30 17 -6 0 -22 3 -35 7 -18 5 -22 3 -16 -7z"/>
<path d="M2161 3398 c-1 -72 2 -98 12 -98 7 0 8 -3 2 -8 -16 -12 -16 -32 0
-26 15 6 21 44 8 44 -5 0 -7 21 -5 47 1 27 -1 68 -7 93 -8 40 -9 35 -10 -52z"/>
<path d="M2622 3435 c0 -16 2 -22 5 -12 2 9 2 23 0 30 -3 6 -5 -1 -5 -18z"/>
<path d="M2672 3398 c2 -13 21 -32 48 -49 55 -33 60 -34 60 -10 0 11 -19 30
-51 50 -60 37 -61 37 -57 9z"/>
<path d="M3689 3333 c5 -10 21 -33 35 -52 28 -38 26 -51 -10 -51 -13 0 -24 -3
-24 -7 0 -5 37 -28 82 -52 83 -45 86 -43 36 21 -25 32 -26 37 -11 41 13 3 11
5 -7 6 -18 1 -36 17 -64 56 -39 55 -56 71 -37 38z"/>
<path d="M3381 3294 c0 -11 3 -14 6 -6 3 7 2 16 -1 19 -3 4 -6 -2 -5 -13z"/>
<path d="M2248 3266 c-19 -14 -26 -52 -8 -41 6 4 10 -6 10 -22 1 -24 2 -25 11
-10 6 9 9 33 7 51 -3 31 -5 33 -20 22z"/>
<path d="M2890 3273 c0 -14 14 -28 48 -52 17 -12 32 -31 32 -40 0 -10 6 -24
14 -30 11 -9 15 -7 20 11 10 41 7 47 -46 83 -53 35 -68 41 -68 28z"/>
<path d="M3380 3162 l0 -108 44 -31 44 -31 -5 -59 -4 -58 98 -55 c54 -30 124
-70 156 -87 l57 -33 0 70 c0 52 -3 70 -14 70 -17 0 -66 49 -77 78 -5 12 -14
21 -21 20 -7 -2 -17 7 -23 20 -5 12 -15 22 -21 22 -6 0 -17 12 -25 27 -21 42
-52 74 -65 69 -7 -3 -10 3 -7 15 4 13 0 19 -10 19 -9 0 -18 8 -22 19 -7 22
-61 81 -74 81 -13 0 -20 39 -8 43 6 2 3 6 -6 10 -15 6 -17 -4 -17 -101z"/>
<path d="M3828 3243 c7 -3 16 -2 19 1 4 3 -2 6 -13 5 -11 0 -14 -3 -6 -6z"/>
<path d="M2180 3221 c0 -6 4 -13 10 -16 6 -3 7 1 4 9 -7 18 -14 21 -14 7z"/>
<path d="M3042 3153 c3 -35 8 -40 78 -79 73 -42 75 -42 81 -21 7 24 -5 36
-104 100 l-58 37 3 -37z"/>
<path d="M3243 3041 c3 -12 0 -21 -6 -21 -13 0 33 -39 46 -40 19 0 5 49 -19
65 -26 17 -27 17 -21 -4z"/>
<path d="M2111 2921 l-24 -19 32 -16 c18 -10 38 -15 44 -13 7 2 25 -2 41 -10
l29 -15 -6 38 c-4 20 -12 41 -19 46 -22 14 -72 8 -97 -11z"/>
<path d="M3385 2919 c-4 -5 -18 -15 -32 -20 -14 -5 -23 -12 -20 -15 7 -7 67
27 67 38 0 11 -8 10 -15 -3z"/>
<path d="M3310 2871 c0 -5 -10 -12 -22 -16 -13 -4 -25 -8 -28 -10 -3 -1 -14
-6 -25 -10 -11 -5 -36 -18 -55 -30 -19 -12 -38 -22 -41 -21 -4 1 -15 -6 -25
-14 -11 -9 -46 -29 -79 -45 -33 -17 -63 -34 -66 -39 -4 -5 -12 -5 -18 -2 -6 4
-14 0 -17 -8 -3 -9 -11 -16 -18 -16 -6 0 -22 -9 -36 -20 -14 -11 -33 -20 -43
-20 -11 0 -17 -5 -14 -12 7 -20 51 -12 96 17 44 30 63 26 57 -10 -5 -29 9 -42
18 -18 6 15 8 15 16 3 9 -13 10 -13 10 0 0 11 15 16 58 18 31 1 71 7 89 13 32
10 76 20 103 23 9 0 14 -7 13 -18 -1 -12 2 -15 9 -8 7 7 6 17 -1 31 -9 16 -9
19 2 15 8 -3 14 1 14 8 0 7 4 55 8 106 4 50 5 92 1 92 -3 0 -6 -4 -6 -9z"/>
<path d="M1963 2837 c-29 -17 -53 -34 -53 -37 0 -3 14 -14 30 -24 24 -14 34
-15 45 -6 8 6 24 9 35 5 20 -6 21 -4 18 41 -2 26 -7 48 -13 50 -5 1 -34 -12
-62 -29z"/>
<path d="M2087 2851 c3 -12 11 -17 19 -14 11 4 12 9 3 19 -16 20 -28 17 -22
-5z"/>
<path d="M2096 2778 c10 -73 8 -72 74 -36 65 36 77 53 30 43 -22 -5 -40 -1
-66 14 -19 12 -37 21 -40 21 -2 0 -2 -19 2 -42z"/>
<path d="M1733 2712 c-88 -51 -110 -69 -101 -79 16 -20 32 -16 17 5 -13 15
-12 16 4 3 16 -13 15 -16 -20 -48 -30 -27 -32 -31 -10 -19 29 18 21 20 103
-30 l26 -16 -48 -28 -49 -28 -48 26 c-90 48 -57 15 43 -43 55 -33 100 -62 100
-65 0 -9 -75 -50 -90 -50 -7 0 -57 25 -111 56 -55 31 -102 54 -105 52 -3 -3
14 -17 37 -30 l42 -25 -48 -26 c-26 -15 -52 -27 -58 -27 -6 0 -30 11 -54 25
-23 14 -43 22 -43 18 0 -4 23 -21 50 -36 l51 -29 47 28 c26 15 50 31 53 36 3
5 33 -7 67 -28 68 -40 87 -40 150 0 20 12 44 21 52 18 8 -3 12 -1 8 3 -4 4 0
14 8 22 18 19 10 30 -10 14 -11 -10 -26 -6 -71 18 l-56 30 45 22 c26 12 49 25
51 30 3 4 20 -1 38 -11 35 -22 47 -25 47 -12 0 5 -12 14 -27 21 l-27 12 43 26
c28 17 41 30 37 40 -3 8 -6 18 -6 23 0 4 -17 18 -37 30 l-37 22 31 19 c28 18
31 24 26 57 -3 20 -6 38 -7 38 -1 1 -51 -28 -113 -64z m84 -87 c23 -14 43 -28
43 -30 0 -2 -20 -16 -45 -30 l-44 -26 -46 26 c-25 15 -48 32 -52 38 -3 7 -3 9
1 5 4 -3 26 5 49 18 23 13 44 24 46 24 2 0 24 -11 48 -25z"/>
<path d="M1908 2731 c3 -20 14 -34 38 -47 l35 -19 -28 -22 c-15 -12 -25 -25
-21 -28 8 -9 118 57 111 67 -3 5 -12 7 -21 3 -21 -8 -102 36 -99 54 1 8 -3 16
-9 18 -7 2 -9 -7 -6 -26z"/>
<path d="M2191 2696 c-10 -12 -8 -17 8 -26 19 -9 21 -8 21 15 0 28 -12 32 -29
11z"/>
<path d="M2191 2641 c-9 -6 -10 -11 -2 -15 13 -8 31 1 31 15 0 11 -11 11 -29
0z"/>
<path d="M1596 2633 c-10 -10 -7 -23 5 -23 5 0 7 5 3 12 -4 7 -3 8 5 4 9 -6 9
-11 -1 -24 -12 -14 -10 -14 10 -3 12 6 22 14 22 16 0 9 -38 24 -44 18z"/>
<path d="M2086 2618 c5 -7 7 -25 6 -40 -2 -26 -1 -27 21 -17 19 9 31 7 57 -6
17 -9 35 -14 38 -10 9 9 -59 64 -80 65 -9 0 -20 5 -23 10 -3 6 -11 10 -16 10
-6 0 -7 -5 -3 -12z"/>
<path d="M1545 2600 c-3 -6 1 -7 9 -4 18 7 21 14 7 14 -6 0 -13 -4 -16 -10z"/>
<path d="M2030 2545 l-25 -14 25 -9 c19 -7 26 -6 28 4 6 26 -3 33 -28 19z"/>
<path d="M2221 2517 c-6 -8 -29 -22 -51 -32 -35 -16 -38 -19 -23 -30 14 -10
24 -8 60 14 24 15 43 33 43 43 0 21 -13 23 -29 5z"/>
<path d="M1918 2479 c-16 -11 -28 -24 -28 -27 0 -4 18 -16 40 -26 65 -31 67
-41 16 -71 -37 -22 -49 -24 -66 -15 -25 13 -42 4 -20 -11 13 -8 13 -11 -2 -23
-34 -26 -19 -37 21 -16 22 11 41 16 43 12 2 -4 20 -18 42 -31 l38 -24 -38 -23
c-22 -13 -43 -26 -49 -28 -5 -2 -7 -7 -3 -11 5 -5 33 4 64 19 56 28 57 28 91
9 57 -30 59 -39 13 -66 -25 -15 -37 -27 -31 -32 7 -3 31 5 56 19 47 28 62 27
119 -13 l29 -19 -43 -22 c-28 -14 -39 -25 -32 -32 6 -6 25 -1 57 16 l47 25 42
-26 c22 -14 43 -27 45 -29 2 -2 -13 -11 -33 -20 -20 -10 -36 -21 -36 -25 0
-18 29 -15 64 6 l38 23 121 -71 c67 -39 141 -81 165 -95 48 -27 52 -38 17 -54
-34 -15 -24 -24 51 -48 98 -30 142 -27 204 14 29 19 58 32 66 29 19 -7 40 7
24 17 -12 7 1 15 35 22 6 1 16 8 23 15 7 7 22 13 33 13 21 0 68 46 69 67 0 18
-51 74 -64 70 -6 -2 -13 -26 -16 -53 -6 -62 -34 -71 -74 -24 -31 38 -33 65 -6
80 11 6 20 19 20 28 0 18 -57 59 -67 48 -3 -3 7 -10 22 -16 l27 -10 -26 -21
c-14 -11 -26 -27 -26 -35 0 -8 -3 -14 -8 -14 -8 0 -54 30 -62 41 -3 3 -16 2
-30 -3 -25 -9 -24 -10 20 -33 25 -13 43 -27 41 -31 -3 -8 -91 -61 -167 -100
-31 -16 -31 -16 -132 42 -56 32 -102 61 -102 64 0 3 19 16 43 29 l42 23 62
-37 62 -37 42 25 c36 22 39 26 23 35 -13 7 -24 6 -42 -6 -22 -14 -27 -14 -70
7 l-47 23 25 20 c33 27 9 42 -35 21 -31 -15 -35 -14 -75 10 l-42 25 26 14 c24
12 25 16 12 27 -12 10 -20 9 -41 -5 -25 -17 -28 -16 -71 4 -48 24 -55 37 -24
47 11 3 20 10 20 15 0 19 -21 20 -48 4 -27 -15 -31 -15 -70 5 -47 24 -52 35
-21 52 14 7 18 14 11 21 -6 6 -21 4 -42 -7 -31 -16 -34 -16 -76 7 -24 12 -44
26 -44 29 0 3 11 12 25 19 22 12 23 15 10 22 -10 6 -25 3 -44 -8 -28 -17 -30
-16 -77 11 l-47 28 27 14 c19 10 25 18 18 25 -6 6 -20 4 -41 -6 -29 -15 -33
-15 -70 4 -51 26 -56 34 -26 50 13 7 22 17 19 22 -8 13 -27 9 -56 -13z m157
-138 l46 -29 -47 -26 c-26 -14 -48 -26 -50 -26 -2 0 -25 13 -50 29 l-47 29 49
25 c27 14 50 26 51 26 1 1 23 -12 48 -28z m149 -88 c17 -9 14 -13 -27 -37
l-46 -28 -51 28 -51 28 53 27 c51 26 54 26 78 9 14 -9 34 -22 44 -27z m97 -54
c45 -23 43 -32 -15 -63 l-35 -19 -46 28 -47 27 38 24 c48 29 55 29 105 3z
m119 -69 c22 -11 40 -24 40 -28 0 -4 -19 -18 -43 -31 l-43 -24 -42 24 c-23 13
-42 26 -42 29 0 6 72 49 83 50 4 0 26 -9 47 -20z m120 -70 c21 -11 41 -23 44
-28 3 -5 -15 -18 -39 -30 l-45 -22 -45 22 c-25 12 -45 25 -45 28 0 5 74 46 88
49 1 1 20 -8 42 -19z"/>
<path d="M2290 2492 c0 -4 14 -16 32 -27 l32 -18 -32 -16 c-31 -14 -44 -41
-19 -41 6 1 32 11 56 24 l45 23 -30 18 c-80 50 -84 52 -84 37z"/>
<path d="M3300 2440 c33 -23 50 -30 50 -22 0 5 -11 14 -25 20 -32 15 -45 15
-25 2z"/>
<path d="M2220 2416 c0 -3 9 -10 20 -16 11 -6 20 -8 20 -6 0 3 -9 10 -20 16
-11 6 -20 8 -20 6z"/>
<path d="M2401 2401 c-18 -14 -23 -25 -19 -45 6 -30 1 -32 -31 -9 -14 9 -21
12 -18 6 7 -11 91 -63 102 -63 3 0 -1 10 -9 22 -21 29 -21 78 -1 78 8 0 15 7
15 15 0 20 -10 19 -39 -4z"/>
<path d="M2500 2341 c0 -22 -3 -47 -6 -55 -5 -13 -2 -14 12 -9 28 12 84 47 84
53 0 5 -75 50 -84 50 -4 0 -6 -18 -6 -39z"/>
<path d="M3114 2359 c-45 -34 -51 -41 -31 -33 12 4 17 2 15 -6 -2 -7 16 -23
40 -36 50 -26 55 -21 50 47 -4 53 -28 62 -74 28z"/>
<path d="M3220 2310 c0 -45 0 -46 40 -25 39 20 38 28 -5 48 l-35 17 0 -40z"/>
<path d="M1440 2313 c0 -5 24 -22 53 -37 l53 -29 47 27 c63 37 60 53 -3 18
l-49 -27 -51 28 c-27 16 -50 24 -50 20z"/>
<path d="M1681 2311 c3 -7 29 -26 58 -43 30 -17 52 -26 50 -19 -3 7 -29 26
-58 43 -30 17 -52 26 -50 19z"/>
<path d="M2568 2285 c-26 -14 -49 -28 -52 -33 -5 -9 104 -76 111 -68 3 3 -14
14 -38 26 l-43 22 25 19 c13 10 32 21 42 25 16 5 25 34 10 34 -5 -1 -29 -12
-55 -25z"/>
<path d="M2973 2278 c-34 -20 -43 -38 -20 -38 7 -1 4 -7 -7 -15 -10 -8 -24
-12 -30 -8 -6 3 -3 -3 7 -13 14 -15 22 -17 47 -7 21 8 30 8 34 -1 2 -6 5 15 5
47 1 31 0 57 -1 56 -2 0 -18 -10 -35 -21z"/>
<path d="M2660 2282 c0 -6 13 -19 30 -28 l29 -18 -29 -18 c-17 -10 -30 -26
-30 -37 0 -18 4 -17 54 12 30 18 52 35 48 38 -22 20 -102 59 -102 51z"/>
<path d="M3040 2230 c0 -43 3 -50 19 -50 11 0 36 10 56 21 l36 22 -29 17 c-17
10 -33 23 -36 29 -4 6 -16 11 -27 11 -16 0 -19 -7 -19 -50z"/>
<path d="M3298 2249 c-34 -22 -46 -36 -43 -50 2 -11 0 -17 -6 -14 -5 4 -7 11
-4 16 10 16 -8 10 -69 -24 -33 -18 -57 -36 -55 -42 2 -5 8 -9 12 -7 5 1 22 -7
39 -19 l30 -22 -23 -13 c-13 -7 -28 -10 -34 -7 -12 5 18 -20 68 -59 26 -21 40
-42 52 -83 8 -30 18 -55 21 -55 3 0 3 9 -1 19 -5 18 -3 18 19 8 l24 -12 -33
-22 c-37 -25 -61 -30 -49 -11 4 7 -7 2 -24 -11 -18 -12 -37 -31 -42 -41 -6
-11 -20 -25 -31 -31 -15 -8 -19 -8 -15 0 5 7 0 8 -14 3 -12 -4 -21 -12 -20
-16 3 -15 -69 -56 -99 -56 -20 0 -29 -4 -26 -13 3 -7 -13 -22 -39 -36 l-44
-24 -49 30 c-27 17 -65 34 -84 38 -18 4 -44 14 -57 23 -30 19 -40 8 -44 -48
-3 -40 -6 -45 -28 -45 -16 0 -31 11 -47 34 -28 42 -29 61 -3 68 20 5 29 43 9
43 -25 0 -49 -22 -49 -45 0 -31 -1 -31 -57 2 l-45 26 41 25 c28 16 39 28 32
35 -6 6 -25 1 -56 -17 l-46 -27 -44 26 c-25 14 -45 28 -45 30 0 2 16 13 36 25
53 34 28 49 -28 17 l-43 -26 -120 68 c-119 68 -120 69 -121 107 -1 26 -8 43
-24 56 -29 24 -38 15 -42 -42 -2 -37 -7 -46 -25 -48 -26 -4 -60 27 -69 63 -5
19 -1 31 15 46 11 11 21 24 21 29 0 17 -29 11 -51 -11 l-20 -20 -136 78 c-150
86 -165 93 -143 70 8 -9 74 -50 145 -91 72 -41 129 -79 128 -85 -2 -6 0 -11 5
-11 4 0 13 -12 19 -27 24 -54 110 -92 140 -62 8 8 17 7 32 -3 12 -8 18 -17 15
-21 -3 -3 -3 -11 1 -17 5 -8 10 -8 20 0 10 9 19 9 32 0 16 -10 15 -10 -4 -5
-37 10 -27 -3 32 -41 31 -19 61 -32 68 -28 6 4 9 3 4 -1 -4 -5 25 -27 64 -50
38 -23 75 -47 80 -52 9 -9 -66 -65 -113 -85 -10 -4 -18 -11 -18 -14 0 -4 3 -4
7 0 9 8 73 -54 73 -71 0 -7 5 -13 10 -13 6 0 10 -9 10 -20 0 -11 5 -20 10 -20
6 0 10 -7 10 -15 0 -9 7 -18 15 -21 9 -4 15 -11 14 -18 -3 -23 1 -36 12 -36 5
0 7 6 3 13 -5 7 -2 7 10 -2 9 -8 22 -23 28 -34 9 -18 8 -19 -13 -14 -21 5 -19
2 11 -24 l35 -30 -30 7 c-16 3 -36 14 -43 23 -7 9 -17 15 -22 14 -5 -2 -32 11
-60 27 -28 17 -55 30 -60 30 -6 0 -10 5 -10 10 0 6 -5 10 -11 10 -9 0 -567
310 -594 330 -37 28 -718 411 -722 406 -16 -16 28 -46 269 -184 144 -83 555
-317 911 -521 389 -222 659 -371 674 -371 25 0 93 38 713 395 140 81 319 184
397 228 123 71 142 85 147 111 5 22 1 35 -11 47 -14 12 -650 380 -657 379 0 0
-22 -14 -48 -31z m-4 -28 c3 -5 -1 -14 -8 -20 -12 -10 -14 -9 -11 6 2 10 4 19
4 21 2 5 10 2 15 -7z m41 -21 c-3 -5 -12 -10 -18 -10 -7 0 -6 4 3 10 19 12 23
12 15 0z m44 -63 c-2 -1 -13 -9 -24 -17 -19 -14 -19 -14 -6 3 7 9 18 17 24 17
6 0 8 -1 6 -3z m36 -47 c13 -6 15 -9 5 -9 -8 0 -22 4 -30 9 -18 12 -2 12 25 0z
m145 -7 c0 -1 -8 -7 -18 -12 -13 -7 -19 -6 -19 2 0 7 9 13 19 13 10 0 18 -1
18 -3z m-46 -54 c-2 -4 2 -10 8 -12 7 -3 8 -6 2 -6 -5 -1 -18 5 -28 12 -16 12
-16 13 3 13 11 0 18 -3 15 -7z m-157 -54 c0 -8 -4 -12 -8 -10 -11 7 -39 -6
-39 -17 0 -6 7 -7 16 -4 8 3 12 2 9 -4 -3 -6 6 -8 22 -6 15 2 20 1 10 -1 -15
-4 -16 -7 -6 -20 8 -8 -2 -6 -24 7 -20 12 -37 26 -37 31 0 6 25 24 56 39 0 0
1 -7 1 -15z m283 -10 c0 -2 -5 -7 -12 -11 -7 -5 -8 -3 -3 6 6 9 4 12 -7 8 -8
-4 -15 0 -15 7 0 10 5 11 19 4 10 -5 18 -12 18 -14z m36 13 c-10 -6 -22 -6
-26 -2 -5 5 3 10 18 11 22 1 24 0 8 -9z m54 8 c0 -2 -7 -7 -16 -10 -8 -3 -12
-2 -9 4 6 10 25 14 25 6z m-300 -40 c0 -3 -4 -8 -10 -11 -5 -3 -10 -1 -10 4 0
6 5 11 10 11 6 0 10 -2 10 -4z m245 -6 c-3 -5 -12 -10 -18 -10 -7 0 -6 4 3 10
19 12 23 12 15 0z m179 -25 c11 -8 16 -15 10 -15 -5 0 -18 7 -28 15 -11 8 -16
15 -10 15 5 0 18 -7 28 -15z m-74 1 c0 -2 -7 -7 -16 -10 -8 -3 -12 -2 -9 4 6
10 25 14 25 6z m-245 -28 c-9 -6 -19 -7 -22 -4 -4 3 -1 6 6 6 7 0 9 4 6 10 -4
6 1 7 11 3 15 -6 15 -7 -1 -15z m-147 -50 c-2 -7 -7 -16 -13 -20 -6 -5 -6 -8
2 -8 6 0 15 5 18 10 3 6 11 10 18 10 8 0 8 -3 0 -11 -6 -6 -9 -19 -6 -28 4
-12 3 -13 -5 -3 -7 11 -11 9 -15 -9 l-6 -22 -21 24 c-12 13 -19 18 -15 11 5
-10 1 -10 -20 0 -23 10 -32 31 -12 28 4 0 15 6 23 15 19 18 55 20 52 3z m232
8 c0 -2 -7 -7 -16 -10 -8 -3 -12 -2 -9 4 6 10 25 14 25 6z m-400 -30 c0 -2 -7
-7 -16 -10 -8 -3 -12 -2 -9 4 6 10 25 14 25 6z m82 -51 l38 -19 -43 -27 -42
-26 -37 21 c-21 11 -38 24 -38 28 0 8 72 47 80 44 3 -1 22 -11 42 -21z m195 0
c0 -8 -4 -15 -9 -15 -5 0 -7 -4 -4 -9 3 -5 -2 -15 -11 -22 -15 -12 -16 -12
-10 4 3 9 2 17 -3 17 -6 0 -10 -5 -10 -11 0 -5 -4 -7 -10 -4 -5 3 -10 11 -10
16 0 6 5 7 10 4 6 -3 10 -2 10 4 0 6 7 7 17 4 10 -4 14 -2 10 4 -4 6 -1 14 5
16 7 3 13 6 14 6 0 1 1 -6 1 -14z m26 -10 c-3 -9 -8 -14 -10 -11 -3 3 -2 9 2
15 9 16 15 13 8 -4z m-2 -38 c-1 -12 -15 -9 -19 4 -3 6 1 10 8 8 6 -3 11 -8
11 -12z m-335 -19 l36 -21 -23 -19 c-39 -30 -65 -32 -109 -7 l-41 23 38 23
c47 28 53 28 99 1z m234 -2 l41 -23 -36 -23 c-39 -24 -68 -22 -106 9 l-23 18
39 21 c22 12 41 21 41 22 1 0 21 -11 44 -24z m-600 -56 c22 -11 40 -24 40 -28
0 -5 -18 -18 -40 -31 l-40 -22 -40 22 c-22 13 -40 25 -40 28 0 7 62 50 73 50
4 1 26 -8 47 -19z m244 -6 l47 -27 -42 -24 c-42 -24 -44 -24 -82 -7 -21 10
-40 21 -43 25 -3 6 46 46 72 58 1 1 23 -11 48 -25z m228 2 c10 -7 15 -15 12
-18 -3 -4 1 -5 10 -4 29 2 21 -16 -16 -37 l-37 -22 -34 20 c-42 24 -43 34 -8
57 32 20 51 21 73 4z m-343 -70 l45 -23 -44 -28 -44 -28 -43 24 c-24 13 -43
27 -43 31 0 7 68 47 80 47 3 0 25 -10 49 -23z m246 -8 l37 -21 -38 -24 c-48
-28 -50 -28 -98 0 l-38 24 33 21 c43 27 59 27 104 0z m-127 -60 c23 -13 42
-26 42 -29 0 -3 -20 -17 -44 -30 l-44 -23 -42 28 -43 28 39 23 c49 29 42 29
92 3z m-588 -179 c0 -6 -4 -7 -10 -4 -5 3 -10 11 -10 16 0 6 5 7 10 4 6 -3 10
-11 10 -16z m50 -13 c0 -2 -7 -7 -16 -10 -8 -3 -12 -2 -9 4 6 10 25 14 25 6z"/>
<path d="M3400 1680 c8 -5 22 -9 30 -9 10 0 8 3 -5 9 -27 12 -43 12 -25 0z"/>
<path d="M2790 2202 c0 -5 7 -13 16 -16 10 -4 14 -1 12 6 -5 15 -28 23 -28 10z"/>
<path d="M2880 2151 c0 -13 57 -44 71 -39 6 2 -8 14 -30 26 -23 13 -41 19 -41
13z"/>
<path d="M2690 2146 c0 -5 115 -76 121 -76 2 0 5 18 6 40 l3 41 -30 -18 c-28
-16 -32 -16 -65 0 -19 9 -35 15 -35 13z"/>
<path d="M3104 2092 c4 -3 14 -7 22 -8 9 -1 13 0 10 4 -4 3 -14 7 -22 8 -9 1
-13 0 -10 -4z"/>
<path d="M2017 1949 c7 -7 15 -10 18 -7 3 3 -2 9 -12 12 -14 6 -15 5 -6 -5z"/>
</g>
</svg>
