<?xml version="1.0" encoding="UTF-8"?>
<svg xmlns="http://www.w3.org/2000/svg" xmlns:xlink="http://www.w3.org/1999/xlink" viewBox="0 0 500 500">
  <defs>
    <style>
      .cls-1, .cls-2, .cls-3, .cls-4, .cls-5, .cls-6, .cls-7, .cls-8, .cls-9, .cls-10, .cls-11, .cls-12, .cls-13, .cls-14, .cls-15, .cls-16, .cls-17, .cls-18, .cls-19, .cls-20, .cls-21, .cls-22, .cls-23 {
        fill: none;
      }

      .cls-1, .cls-2, .cls-4, .cls-6, .cls-8, .cls-9, .cls-11, .cls-12, .cls-13, .cls-16, .cls-20, .cls-21, .cls-22 {
        stroke-linecap: round;
        stroke-linejoin: round;
      }

      .cls-1, .cls-9 {
        stroke: #e3a214;
      }

      .cls-2 {
        stroke: #399fdd;
      }

      .cls-24 {
        fill: #af6e51;
      }

      .cls-3 {
        clip-path: url(#clippath-2);
      }

      .cls-25 {
        fill: #339fe0;
        mix-blend-mode: multiply;
        opacity: .3;
      }

      .cls-26, .cls-27, .cls-28 {
        fill: #fff;
      }

      .cls-29 {
        fill: #e7f0ff;
      }

      .cls-4 {
        stroke: #fcbf31;
      }

      .cls-4, .cls-9 {
        stroke-width: 2px;
      }

      .cls-5 {
        clip-path: url(#clippath-6);
      }

      .cls-6 {
        stroke-dasharray: 0 0 4.1 4.1;
      }

      .cls-6, .cls-13, .cls-22 {
        stroke: #9ed3f5;
      }

      .cls-7, .cls-10, .cls-15, .cls-23 {
        stroke-miterlimit: 10;
      }

      .cls-7, .cls-12 {
        stroke: #eaf3ff;
      }

      .cls-30 {
        fill: #399fdd;
      }

      .cls-8 {
        stroke: #aed5fe;
      }

      .cls-10 {
        stroke-width: 6px;
      }

      .cls-10, .cls-15, .cls-23 {
        stroke: #e1ecff;
      }

      .cls-11 {
        stroke: #7db6f9;
      }

      .cls-31 {
        fill: #4a8aec;
      }

      .cls-32 {
        fill: #fcbf31;
      }

      .cls-14 {
        clip-path: url(#clippath-7);
      }

      .cls-15 {
        stroke-width: 3px;
      }

      .cls-16 {
        stroke: #000;
      }

      .cls-33 {
        fill: #69b2d3;
      }

      .cls-34 {
        fill: #6aa0ef;
      }

      .cls-35 {
        fill: #5a92e5;
      }

      .cls-36 {
        letter-spacing: 0em;
      }

      .cls-37 {
        fill: #e3a214;
      }

      .cls-27 {
        font-family: Quicksand-Bold, 'Quicksand Bold';
        font-size: 21.8px;
        font-weight: 700;
      }

      .cls-38 {
        fill: #f4406f;
      }

      .cls-17 {
        isolation: isolate;
      }

      .cls-39 {
        fill: #f5f8ff;
      }

      .cls-40 {
        letter-spacing: -.01em;
      }

      .cls-41 {
        fill: #7db6f9;
      }

      .cls-18 {
        clip-path: url(#clippath-3);
      }

      .cls-20 {
        stroke: #f3809f;
      }

      .cls-42 {
        fill: #2e53ab;
      }

      .cls-43 {
        fill: #5082db;
      }

      .cls-28 {
        font-family: Satisfy-Regular, 'Satisfy Regular';
        font-size: 16.76px;
      }

      .cls-44 {
        fill: #c48b65;
      }

      .cls-45 {
        fill: #22458c;
      }

      .cls-21 {
        stroke: #ad2556;
      }

      .cls-46 {
        fill: #8fc6ff;
      }

      .cls-22 {
        stroke-dasharray: 0 0 3.94 3.94;
      }

      .cls-23 {
        stroke-width: 14px;
      }

      .cls-47 {
        fill: #aed5fe;
      }

      .cls-48 {
        fill: #eaf3ff;
      }
    </style>
    <clipPath id="clippath-2">
      <rect class="cls-19" x="302.62" y="132.56" width="67.21" height="142.51"/>
    </clipPath>
    <clipPath id="clippath-3">
      <rect class="cls-19" x="388.74" y="132.56" width="67.21" height="142.51"/>
    </clipPath>
    <clipPath id="clippath-6">
      <rect class="cls-19" x="180.85" y="271.81" width="65.99" height="36.8"/>
    </clipPath>
    <clipPath id="clippath-7">
      <rect class="cls-19" x="180.85" y="314.4" width="65.99" height="50.89"/>
    </clipPath>
  </defs>
  <g class="cls-17">
    <g id="BACKGROUND">
      <g>
        <rect class="cls-26" width="500" height="500"/>
        <g>
          <path class="cls-39" d="m62.32,257.14c-2.69-41.38-58.19-111.31-20.95-165.31,37.24-54,82.48-54,175.19-38,92.71,16,129.9-33.25,188.64-9.29,58.74,23.96,70.28,67.95,50.8,132.96-19.48,65.01-6.74,123.8,3.93,169.4,10.67,45.6-25.15,94.25-106.83,94.25-81.68,0-121.98-87.32-197.49-90.4-75.51-3.08-88.91-26.3-93.29-93.61Z"/>
          <path class="cls-29" d="m395.01,358.03c8.34,84.57-79.97,36.8-185.07,62.57-141.17,34.62-110.68-38.67-161.81-72.14-51.12-33.47-28.58-87.73,15.15-138.26,43.73-50.54,2.21-104.41,56.39-131.08,54.19-26.67,109,7.24,164.2,40.58,55.2,33.33,91.59-18.99,136.84,16.8,45.25,35.78-36.12,115.85-25.7,221.53Z"/>
          <path class="cls-39" d="m310.29,453.04c0,3.66-30.56,6.62-68.25,6.62s-68.25-2.97-68.25-6.62,30.56-6.62,68.25-6.62,68.25,2.97,68.25,6.62Z"/>
        </g>
      </g>
    </g>
    <g id="OBJECTS">
      <g>
        <g>
          <g>
            <rect class="cls-43" x="292.25" y="123.91" width="174.07" height="159.8"/>
            <g>
              <g>
                <rect class="cls-47" x="302.62" y="132.56" width="67.21" height="142.51"/>
                <g class="cls-3">
                  <g>
                    <line class="cls-10" x1="272.99" y1="199.79" x2="405.68" y2="84.53"/>
                    <line class="cls-23" x1="284.62" y1="211.99" x2="417.32" y2="96.73"/>
                  </g>
                </g>
              </g>
              <g>
                <rect class="cls-47" x="388.74" y="132.56" width="67.21" height="142.51"/>
                <g class="cls-18">
                  <g>
                    <line class="cls-10" x1="351.02" y1="199.79" x2="483.72" y2="84.53"/>
                    <line class="cls-23" x1="362.66" y1="211.99" x2="495.35" y2="96.73"/>
                  </g>
                </g>
              </g>
            </g>
            <rect class="cls-25" x="292.25" y="219.3" width="174.07" height="64.41"/>
          </g>
          <g>
            <polygon class="cls-7" points="350.97 194.78 379.9 171.83 408.83 194.78 350.97 194.78"/>
            <path class="cls-38" d="m382.25,171.86c0,1.25-1.02,2.27-2.27,2.27s-2.27-1.02-2.27-2.27,1.02-2.27,2.27-2.27,2.27,1.02,2.27,2.27Z"/>
            <g>
              <g>
                <rect class="cls-37" x="342.53" y="191.52" width="74.75" height="49.36" rx="5.25" ry="5.25"/>
                <rect class="cls-32" x="342.53" y="191.52" width="73.16" height="48.31" rx="5.14" ry="5.14"/>
              </g>
              <g>
                <text class="cls-27" transform="translate(348.62 229.88)"><tspan x="0" y="0">OPEN</tspan></text>
                <text class="cls-28" transform="translate(357.41 209.12)"><tspan class="cls-36" x="0" y="0">w</tspan><tspan x="12.17" y="0">e a</tspan><tspan class="cls-40" x="32.19" y="0">r</tspan><tspan x="37.51" y="0">e</tspan></text>
              </g>
            </g>
          </g>
        </g>
        <g>
          <path class="cls-38" d="m465.46,81.06h-172.35l-15.07,46.11v13.38c0,7.28,5.9,13.18,13.18,13.18,5.91,0,10.91-3.89,12.58-9.25,1.67,5.36,6.67,9.25,12.58,9.25s10.91-3.89,12.58-9.25c1.67,5.36,6.67,9.25,12.58,9.25s10.91-3.89,12.58-9.25c1.67,5.36,6.67,9.25,12.58,9.25s10.91-3.89,12.58-9.25c1.67,5.36,6.67,9.25,12.58,9.25s10.91-3.89,12.58-9.25c1.67,5.36,6.67,9.25,12.58,9.25s10.91-3.89,12.58-9.25c1.67,5.36,6.67,9.25,12.58,9.25s10.91-3.89,12.58-9.25c1.67,5.36,6.67,9.25,12.58,9.25,7.28,0,13.18-5.9,13.18-13.18v-13.38l-15.07-46.11Z"/>
          <path class="cls-48" d="m336.44,81.06h-21.72l-10.92,46.11v17.31c1.67,5.36,6.67,9.25,12.58,9.25s10.91-3.89,12.58-9.25v-17.31l7.48-46.11Z"/>
          <path class="cls-48" d="m357.76,81.06l-3.64,46.11v17.31c1.67,5.36,6.67,9.25,12.58,9.25s10.91-3.89,12.58-9.25v-63.42h-21.52Z"/>
          <path class="cls-48" d="m404.45,127.17v17.31c1.67,5.36,6.67,9.25,12.58,9.25s10.91-3.89,12.58-9.25v-17.31l-7.28-46.11h-21.52l3.64,46.11Z"/>
          <path class="cls-48" d="m467.35,153.73c7.28,0,13.18-5.9,13.18-13.18v-13.38l-15.07-46.11h-21.61l10.92,46.11v17.31c1.67,5.36,6.67,9.25,12.58,9.25Z"/>
          <path class="cls-25" d="m291.22,153.73c5.91,0,10.91-3.89,12.58-9.25,1.67,5.36,6.67,9.25,12.58,9.25s10.91-3.89,12.58-9.25c1.67,5.36,6.67,9.25,12.58,9.25s10.91-3.89,12.58-9.25c1.67,5.36,6.67,9.25,12.58,9.25s10.91-3.89,12.58-9.25c1.67,5.36,6.67,9.25,12.58,9.25s10.91-3.89,12.58-9.25c1.67,5.36,6.67,9.25,12.58,9.25s10.91-3.89,12.58-9.25c1.67,5.36,6.67,9.25,12.58,9.25s10.91-3.89,12.58-9.25c1.67,5.36,6.67,9.25,12.58,9.25,7.28,0,13.18-5.9,13.18-13.18v-13.38h-202.49v13.38c0,7.28,5.9,13.18,13.18,13.18Z"/>
        </g>
        <g>
          <g>
            <g>
              <path class="cls-30" d="m436.26,256.16s-17.46-7.62-23.63-15.82c-6.17-8.2,0-11.01,8.14-5.97,0,0-2.23-6.83,1.58-7.35,3.81-.53,13.39,13.06,13.91,29.14Z"/>
              <path class="cls-33" d="m417.48,238.57c-1.33,1.07-.63,4.13.37,6.88,7.61,6,18.4,10.71,18.4,10.71-4.99-14.83-16.15-19.69-18.77-17.59Z"/>
            </g>
            <g>
              <path class="cls-30" d="m448.54,256.16s17.46-7.62,23.63-15.82c6.17-8.2,0-11.01-8.14-5.97,0,0,2.23-6.83-1.58-7.35-3.81-.53-13.39,13.06-13.91,29.14Z"/>
              <path class="cls-33" d="m467.31,238.57c-2.63-2.1-13.78,2.76-18.77,17.59,0,0,10.78-4.71,18.4-10.71,1.01-2.76,1.71-5.82.37-6.88Z"/>
            </g>
            <g>
              <path class="cls-33" d="m440.59,256.16c-2.87.97-11.03-12.08-13.13-21.53s.79-18.77,7.88-11.95c0,0,.13-12.73,5.91-13.26,5.78-.53,6.96,15.62,6.96,15.62,0,0,4.59-5.78,8.4-3.68,3.81,2.1.66,29.14-16.02,34.79Z"/>
              <g>
                <path class="cls-2" d="m441.11,215.86s1.71,19.95-.53,40.3"/>
                <path class="cls-2" d="m431.79,228.2s3.36,12.85,9.1,24.93c0,0,8.36-10.89,13.35-25.59"/>
              </g>
            </g>
          </g>
          <g>
            <polygon class="cls-48" points="462.12 281.7 421.86 281.7 415.73 250.09 468.24 250.09 462.12 281.7"/>
            <polygon class="cls-47" points="420.69 275.68 421.86 281.7 462.12 281.7 467.11 255.94 420.69 275.68"/>
          </g>
        </g>
        <g>
          <rect class="cls-42" x="283.89" y="281.38" width="190.78" height="22.72"/>
          <rect class="cls-45" x="283.89" y="292.74" width="190.78" height="11.36"/>
        </g>
      </g>
      <g>
        <g>
          <g>
            <path class="cls-41" d="m266.44,418.56s-2.14-23.1,8.66-47.77c8.16-18.62,16.02-27.58,22.32-25.74,6.3,1.84,1.05,14.18,5.78,13.39,4.73-.79,21.27-17,34.39-13.62,13.13,3.38,2.63,14.5-4.46,22.85-7.09,8.36,7.35,1.58,8.4,10.72,1.95,16.99-52.25,22.84-75.09,40.17Z"/>
            <g>
              <path class="cls-8" d="m329.71,353.97s-36.49,17.07-63.27,64.59"/>
              <path class="cls-8" d="m295.32,357.16s-4,8.36-4.36,27.53c0,0,14.34-4.46,38.76-4.99"/>
              <path class="cls-8" d="m305.06,371.01s12.05-6.33,23.34-8.83"/>
              <path class="cls-8" d="m281.79,372.87s-5.24,14.7-5.96,30.72c0,0,13.72-7.28,33.14-11.65"/>
            </g>
          </g>
          <g>
            <path class="cls-47" d="m268.01,411.73s-15.75-46.65-1.58-85.42c0,0,15.75,28.71,1.58,85.42Z"/>
            <path class="cls-11" d="m267.23,341.11s3.15,27.82.79,70.62"/>
          </g>
        </g>
        <g>
          <g>
            <path class="cls-47" d="m85.03,396.85s-28.36-32.56-40.17-37.54-14.06-.76-18.12,4.46c-1.64,2.11-15.23-3.94-19.43,6.3-4.2,10.24,4.59,12.94,14.44,15.75,7.35,2.1-7.09,6.56-2.1,14.97s19.17,7.09,65.37-3.94Z"/>
            <g>
              <path class="cls-11" d="m13.35,372.86s21.53-1.74,71.68,23.99"/>
              <path class="cls-11" d="m29.1,396.85s19.39-3.86,50.26-2.85c0,0-18.49-19.47-39.76-28.39"/>
            </g>
          </g>
          <g>
            <path class="cls-41" d="m93.25,397.94s-3.68-42.52-21.57-68.65c-17.9-26.13-44.94-40.49-44.94-40.49,0,0,.79,38.8,18.38,68.19,17.59,29.39,48.13,40.95,48.13,40.95Z"/>
            <g>
              <path class="cls-8" d="m39.61,308.89s33.52,33.12,53.65,89.05"/>
              <path class="cls-8" d="m35.41,319.96s12.13,5.78,26.67,17.07c0,0-2.06-15.49-7.89-24.29"/>
              <path class="cls-8" d="m45.63,343.37s11.56,2.8,26.79,10.04"/>
              <path class="cls-8" d="m74.53,340.18s3.86,14.61,5.6,27.39c0,0-11.27-4.55-25.9-7.44"/>
              <path class="cls-8" d="m67.18,374.04s13.64,5.52,22.57,14.7"/>
            </g>
          </g>
        </g>
        <g>
          <g>
            <g>
              <g>
                <rect class="cls-43" x="76.12" y="123.91" width="180.13" height="273.05"/>
                <rect class="cls-46" x="85.54" y="134.41" width="161.29" height="262.55"/>
              </g>
              <g>
                <rect class="cls-41" x="192.46" y="194.76" width="17.71" height="20.82"/>
                <rect class="cls-41" x="210.16" y="200.11" width="12.87" height="15.47"/>
                <rect class="cls-41" x="235.33" y="195.65" width="11.5" height="19.92"/>
                <rect class="cls-47" x="185.61" y="215.58" width="61.22" height="3.73"/>
              </g>
              <g>
                <rect class="cls-41" x="174.37" y="264.06" width="72.46" height="132.9"/>
                <g>
                  <rect class="cls-47" x="180.85" y="271.81" width="65.99" height="36.8"/>
                  <g class="cls-5">
                    <g>
                      <line class="cls-15" x1="175.77" y1="295.85" x2="209.57" y2="266.12"/>
                      <line class="cls-10" x1="174.12" y1="309.02" x2="220.17" y2="268.53"/>
                    </g>
                  </g>
                </g>
                <g>
                  <rect class="cls-47" x="180.85" y="314.4" width="65.99" height="50.89"/>
                  <g class="cls-14">
                    <g>
                      <line class="cls-15" x1="175.77" y1="333.52" x2="209.57" y2="303.79"/>
                      <line class="cls-10" x1="174.12" y1="346.69" x2="220.17" y2="306.2"/>
                    </g>
                  </g>
                </g>
              </g>
            </g>
            <g>
              <rect class="cls-34" x="85.54" y="134.41" width="80.65" height="262.55"/>
              <path class="cls-32" d="m155.67,245.99c0,2.47-2,4.48-4.48,4.48s-4.48-2-4.48-4.48,2-4.48,4.48-4.48,4.48,2,4.48,4.48Z"/>
              <g>
                <rect class="cls-43" x="95.06" y="142.99" width="61.61" height="84.37"/>
                <rect class="cls-35" x="98.56" y="146.14" width="54.61" height="78.06"/>
              </g>
              <g>
                <rect class="cls-43" x="95.06" y="266.43" width="61.61" height="50.19"/>
                <rect class="cls-35" x="98.56" y="270.06" width="54.61" height="42.93"/>
              </g>
              <g>
                <rect class="cls-43" x="95.06" y="324.19" width="61.61" height="50.19"/>
                <rect class="cls-35" x="98.56" y="327.82" width="54.61" height="42.93"/>
              </g>
              <rect class="cls-42" x="84.49" y="134.41" width="3.06" height="262.55"/>
            </g>
            <g>
              <rect class="cls-41" x="192.97" y="174.13" width="8.8" height="9.18"/>
              <rect class="cls-41" x="205.14" y="166.45" width="12.51" height="16.86"/>
              <rect class="cls-41" x="223.03" y="170.3" width="8.35" height="13.01"/>
              <rect class="cls-41" x="235.33" y="164.34" width="11.5" height="18.96"/>
              <rect class="cls-47" x="185.61" y="183.31" width="61.22" height="3.73"/>
            </g>
            <path class="cls-25" d="m76.12,167.34c1.46-1.61,2.59-3.53,3.25-5.65,1.92,6.16,7.67,10.63,14.47,10.63s12.55-4.47,14.47-10.63c1.92,6.16,7.67,10.63,14.47,10.63s12.55-4.47,14.47-10.63c1.92,6.16,7.67,10.63,14.47,10.63s12.55-4.47,14.47-10.63c1.92,6.16,7.67,10.63,14.47,10.63s12.55-4.47,14.47-10.63c1.92,6.16,7.67,10.63,14.47,10.63s12.55-4.47,14.47-10.63c1.92,6.16,7.67,10.63,14.47,10.63s12.55-4.47,14.47-10.63c.66,2.13,1.79,4.04,3.25,5.65v-43.43H76.12v43.43Z"/>
          </g>
          <g>
            <path class="cls-38" d="m265.3,67.73H67.07l-17.33,53.03v15.39c0,8.37,6.79,15.16,15.16,15.16,6.8,0,12.55-4.47,14.47-10.63,1.92,6.16,7.67,10.63,14.47,10.63s12.55-4.47,14.47-10.63c1.92,6.16,7.67,10.63,14.47,10.63s12.55-4.47,14.47-10.63c1.92,6.16,7.67,10.63,14.47,10.63s12.55-4.47,14.47-10.63c1.92,6.16,7.67,10.63,14.47,10.63s12.55-4.47,14.47-10.63c1.92,6.16,7.67,10.63,14.47,10.63s12.55-4.47,14.47-10.63c1.92,6.16,7.67,10.63,14.47,10.63s12.55-4.47,14.47-10.63c1.92,6.16,7.67,10.63,14.47,10.63,8.37,0,15.16-6.79,15.16-15.16v-15.39l-17.33-53.03Z"/>
            <path class="cls-48" d="m116.91,67.73h-24.98l-12.56,53.03v19.91c1.92,6.16,7.67,10.63,14.47,10.63s12.55-4.47,14.47-10.63v-19.91l8.6-53.03Z"/>
            <path class="cls-48" d="m141.43,67.73l-4.19,53.03v19.91c1.92,6.16,7.67,10.63,14.47,10.63s12.55-4.47,14.47-10.63v-72.94h-24.75Z"/>
            <path class="cls-48" d="m195.12,120.76v19.91c1.92,6.16,7.67,10.63,14.47,10.63s12.55-4.47,14.47-10.63v-19.91l-8.37-53.03h-24.75l4.19,53.03Z"/>
            <path class="cls-48" d="m267.47,151.31c8.37,0,15.16-6.79,15.16-15.16v-15.39l-17.33-53.03h-24.86l12.56,53.03v19.91c1.92,6.16,7.67,10.63,14.47,10.63Z"/>
            <path class="cls-25" d="m64.9,151.31c6.8,0,12.55-4.47,14.47-10.63,1.92,6.16,7.67,10.63,14.47,10.63s12.55-4.47,14.47-10.63c1.92,6.16,7.67,10.63,14.47,10.63s12.55-4.47,14.47-10.63c1.92,6.16,7.67,10.63,14.47,10.63s12.55-4.47,14.47-10.63c1.92,6.16,7.67,10.63,14.47,10.63s12.55-4.47,14.47-10.63c1.92,6.16,7.67,10.63,14.47,10.63s12.55-4.47,14.47-10.63c1.92,6.16,7.67,10.63,14.47,10.63s12.55-4.47,14.47-10.63c1.92,6.16,7.67,10.63,14.47,10.63,8.37,0,15.16-6.79,15.16-15.16v-15.39H49.75v15.39c0,8.37,6.79,15.16,15.16,15.16Z"/>
          </g>
          <rect class="cls-42" x="63.97" y="396.96" width="204.44" height="16.28"/>
          <rect class="cls-45" x="46.47" y="412.24" width="239.42" height="16.28"/>
        </g>
      </g>
      <path class="cls-44" d="m199.89,235.15s-12.73,42.53-10.63,46.6c2.1,4.07,29.9,28.22,31.88,27.83,1.98-.39,4.46-5.82,3.62-10.13,0,0-17.37-19.15-19.08-21.64-1.71-2.49,6.69-20.51,6.29-24.37s-12.08-18.3-12.08-18.3Z"/>
      <g>
        <g>
          <path class="cls-38" d="m251.61,437.31s-3.04,11.42-1.45,13.39c1.58,1.97,20.88,2.23,25.61.79,4.73-1.44-.79-6.7-6.69-6.63,0,0-6.14-3.35-7.48-4.44s-.79-3.63-2.36-3.76c-1.58-.13-7.61.66-7.61.66Z"/>
          <path class="cls-12" d="m258.18,444.52s1.15-3.43,4.51-3.35"/>
          <path class="cls-12" d="m262.69,446.24s1.04-2.92,3.65-2.91"/>
          <path class="cls-48" d="m256.05,444.54c0,.94-.76,1.7-1.7,1.7s-1.7-.76-1.7-1.7.76-1.7,1.7-1.7,1.7.76,1.7,1.7Z"/>
          <path class="cls-48" d="m249.7,448.71c.02.91.15,1.62.45,1.99,1.58,1.97,20.88,2.23,25.61.79,4.66-1.42-.64-6.55-6.46-6.63-2.08,1.95-1.15,5.05-1.15,5.05-9.32.89-15.45-.32-18.45-1.2Z"/>
        </g>
        <g>
          <path class="cls-38" d="m208.26,439.59s-3.11,6.83-3.88,8.08c0,0-4.04.16-4.35,6.37,0,0,6.21,3.26,17.39,0l-.78-14.44h-8.39Z"/>
          <path class="cls-12" d="m214.78,446.73s-3.14-3.2-9.26-1.29"/>
          <path class="cls-12" d="m214.78,442.56s-3.18-2.01-7.49-.86"/>
          <path class="cls-48" d="m200.03,454.03s6.21,3.26,17.39,0l-.19-3.56c-.41.86-.92,1.58-1.52,1.73,0,0,0-4.69-11.34-4.54,0,0-4.04.16-4.35,6.37Z"/>
        </g>
        <g>
          <path class="cls-31" d="m216.17,293.43l36.49.23s7.2,79.75,7.73,88.94c.53,9.19,3.83,51.29,2.78,54.71s-12.86,2.89-13.65,1.84c-.79-1.05-7.5-45.52-8.03-50.51s-5.1-37.97-5.1-37.97c0,0-5.25,28.09-6.56,34.66-1.31,6.56-9.45,54.08-9.45,54.08-3.68,3.68-14.18,1.84-15.23,0s2.23-55.4,2.15-61.7c-.19-14.44,8.88-84.28,8.88-84.28Z"/>
          <g>
            <g>
              <path class="cls-13" d="m219.58,293.67s-.11.71-.29,1.98"/>
              <path class="cls-6" d="m218.72,299.69c-.77,5.57-1.91,14.36-2.81,23.54-.96,9.67-4.34,51.07-4.87,56.32-.44,4.39-3.22,43.94-4.12,56.83"/>
              <path class="cls-13" d="m206.77,438.42c-.09,1.28-.14,1.99-.14,1.99"/>
            </g>
            <g>
              <path class="cls-13" d="m237.52,337.81s.1.72.28,1.98"/>
              <path class="cls-22" d="m238.36,343.68c1.7,11.92,5.45,38.32,6.04,44.17.63,6.22,4.07,36.7,5.32,47.68"/>
              <path class="cls-13" d="m249.93,437.49c.14,1.27.23,1.98.23,1.98"/>
            </g>
            <path class="cls-13" d="m224.31,295.8s1.84,12.34,0,13.92c-1.84,1.58-7.15,2.1-7.15,2.1"/>
            <polyline class="cls-13" points="248.73 295.8 250.16 308.14 254.36 311.81"/>
            <path class="cls-13" d="m236.39,350.67s2.63-32.82,2.36-54.87"/>
            <path class="cls-13" d="m242.69,293.67s1.05,12.89,0,15.52c-1.05,2.63-4.14,2.63-4.14,2.63"/>
          </g>
        </g>
      </g>
      <g>
        <path class="cls-9" d="m218.14,284.79s-14.45-2.79-14.69.54c-.25,3.33,4.41,10.82,6.44,9.87s8.25-10.41,8.25-10.41Z"/>
        <path class="cls-4" d="m219.58,284.85s-9.54-11.2-11.81-8.75c-2.28,2.45-3.31,11.2-1.13,11.73,2.18.53,12.95-2.98,12.95-2.98Z"/>
      </g>
      <path class="cls-44" d="m293.45,196.32c.46-1.14-3.94-1.25-4.82-2.82-.88-1.58-2.45-8.53-3.76-11.09s2.01-2.65,4.38,1.73c0,0,.44,1.23.44-3.15s1.31-9.89,2.36-10.33c1.05-.44.53,9.98,1.14,11.03.61,1.05,1.14-11.9,3.15-12.34,2.01-.44.53,9.98.88,10.85.35.88,2.01-8.4,3.24-8.75,1.23-.35-.53,9.24-.53,10.96s2.54-6.06,3.59-5.62c1.05.44-2.19,14.77-2.28,19.32s-.7,34.15-3.24,37.48c-2.54,3.33-39.03,17.42-43.23,15.75-4.2-1.66-6.35-19.08,1.03-21.18,7.38-2.1,25.84-2.8,27.77-3.85,1.93-1.05,6.66-20.02,9.89-27.98Z"/>
      <g>
        <path class="cls-38" d="m222.96,226.01s-18.08,2.83-21.75,5.85c-3.68,3.02-16.02,24.94-15.23,25.99.79,1.05,6.69,4.86,12.34,6.56,5.64,1.71,10.63,1.58,11.42.92.79-.66,1.05-6.69,1.05-6.69,0,0,3.98,15.18,4.86,19.56.88,4.38-2.1,17.33-1.23,19.08.88,1.75,6.83,5.78,18.38,5.43,11.55-.35,19.84-4.55,20.6-6.3s-1.17-22.05-.99-29.06c.17-7,.75-16.1.75-16.1,0,0,10.28,2.98,11.5,2.45s5.6-6.83,6.3-13.65c.7-6.83-.7-13.83-2.1-14.88-1.4-1.05-23.9.64-31.38.84-7.48.21-14.52,0-14.52,0Z"/>
        <g>
          <path class="cls-21" d="m200.56,232.49s5.3,2.18,10.23,26.15"/>
          <path class="cls-21" d="m247.37,225.54s-1.88,5.94,5.77,25.71"/>
        </g>
        <g>
          <path class="cls-20" d="m187.06,254.71s8.4,7.07,23.22,9.07"/>
          <path class="cls-20" d="m261.85,253.45s7.53-10.41,4.38-28.62"/>
          <path class="cls-20" d="m220.57,226.42s2.9,6.31,10.14,6.08,8.05-6.52,8.05-6.52"/>
        </g>
      </g>
      <path class="cls-44" d="m224.49,209.03s1.55,9.63-1.53,16.99c0,0,7.03,6.56,14.52,0,0,0-1.58-4.68-.53-13.24l-12.46-3.75Z"/>
      <path class="cls-24" d="m224.49,209.03s.53,3.32.35,7.54c1.92,2.75,4.82,5.98,7.94,5.98,1.47,0,2.77-.6,3.9-1.47-.15-2.13-.15-4.9.27-8.3l-12.46-3.75Z"/>
      <path d="m252.01,189.26s3.41,1.71,7.34,1.06.31,6.81-6.21,8.36c0,0-2.77-3.84-1.13-9.42Z"/>
      <path class="cls-44" d="m243.21,182.24c13,4.46,11.16,16.28,7.48,24.42-3.11,6.89-9.55,14.05-17.16,11.95-7.61-2.1-14.54-9.73-10.14-24.15,3.28-10.76,11.24-15.16,19.82-12.21Z"/>
      <path d="m226.06,191.78c1.28-.44,3.15-1.4,5.3-3.48,1.3-1.26,3.28-1.56,4.87-.71,2.9,1.56,7.95,3.65,14.26,3.78,8.2.16,11.09-4.14,9.57-6.26-.78-1.09-.94-2.52-.46-3.76.88-2.31,1.48-5.41-1.04-6.51-4.2-1.84-8.99,3.28-16.41,1.44-5.93-1.47-10.43-2.18-12.33.11-.85,1.02-2.06,1.61-3.39,1.64-.91.02-1.92.37-2.79,1.47-2.17,2.76-.55,15.97-.55,15.97l.44-1.23c.41-1.17,1.36-2.05,2.53-2.46Z"/>
      <path class="cls-24" d="m222.08,201.14l2.18-8.98s-.21-6.08-3.73-5.58c-4.34.61-5.93,14.03,1.55,14.56Z"/>
      <path class="cls-44" d="m220.53,186.58c-1.43.2-2.55,1.79-3.16,3.84,2.63-1.17,5.28.61,6.83,2.01l.07-.27s-.21-6.08-3.73-5.58Z"/>
      <path class="cls-24" d="m247.37,211.59l4.45-8.1s4.26-4.34,6.52-1.6c2.79,3.38-5.09,14.35-10.97,9.7Z"/>
      <path class="cls-44" d="m258.34,201.89c-2.26-2.75-6.52,1.6-6.52,1.6l-.14.25c2.09,0,5.23.49,6.39,3.14.95-1.93,1.19-3.87.27-4.99Z"/>
      <path class="cls-16" d="m242.86,194.45s-4.29,5.25-4.73,7.26c0,0,3.06.96,3.15,1.84.09.88-4.2,2.89-4.2,2.89"/>
      <path d="m234.58,196.19c-.19.79-.82,1.32-1.4,1.18-.58-.14-.89-.9-.7-1.69s.82-1.32,1.4-1.18.89.9.7,1.69Z"/>
      <path d="m246.02,200.74c-.19.79-.82,1.32-1.4,1.18-.58-.14-.89-.9-.7-1.69.19-.79.82-1.32,1.4-1.18.58.14.89.9.7,1.69Z"/>
      <path d="m232.73,191.3c.61-.7,1.65-1.39,2.58-1.55.59-.16,1.12-.33,1.72-.1.29.1,1.23.66,1.16,1.06-.13.74-2.23.37-2.71.29-.62-.12-2.46.63-2.75.3Z"/>
      <path d="m246.52,193.98c.24-.14.82-.22,1.26-.04.68.27.93.76,1.2,1.4.2.53.37,1.09.35,1.66,0,.12-.2,1.33-.28,1.14-.1,0-.39-1.03-.44-1.12-.2-.37-.4-.73-.7-1.03-.26-.23-.67-.44-.84-.76-.09-.12-.99-.79-.54-1.26-.01.01-.04.02,0,0Z"/>
      <path class="cls-16" d="m230.22,205.74s1.51,5.51,7.94,4.99"/>
      <g>
        <path class="cls-32" d="m218.27,226.84s5.83,13.56,6.86,14.44c1.02.88,12.79,0,13.64-1.23s2.08-14.51,2.08-14.51c0,0,2.05-1.24,4.2,0,0,0,1.67,17.49,2.32,19.06.65,1.58,6.14,7.89,6.98,8.85.84.95,1.32,31.88,1.43,40.22.11,8.34,8.93,44.58,8.63,46.85-.29,2.28-15.79,7-30.27,7s-26.38-6.13-26.38-7.35,10.15-44.11,10.5-48.83c.35-4.73-8.29-30.49-7.99-32.09.3-1.6,4.84-11.66,5.37-13.68.53-2.02-3.49-16.44-3.93-17.37-.44-.93,4.63-2.85,6.56-1.37Z"/>
        <path class="cls-48" d="m244.8,261.31c0,4.81-3.89,8.71-8.7,8.71-4.81,0-8.71-3.89-8.71-8.7,0-4.81,3.89-8.71,8.7-8.71,4.81,0,8.71,3.89,8.71,8.7Z"/>
        <path class="cls-1" d="m247.17,270.02s-5.94,9.95-18.75,11.85c0,0,6.86,1.73,16.38,0"/>
      </g>
    </g>
  </g>
</svg>