<?xml version="1.0" encoding="UTF-8"?>
<svg id="Calque_1" data-name="Calque 1" xmlns="http://www.w3.org/2000/svg" viewBox="0 0 266.64 239.46">
  <defs>
    <style>
      .cls-1 {
        font-family: SourceSerifRoman-Regular, 'Source Serif Variable';
        font-size: 43.41px;
        font-variation-settings: 'wght' 400;
      }

      .cls-1, .cls-2 {
        fill: #fff;
      }

      .cls-3 {
        letter-spacing: 0em;
      }

      .cls-4 {
        letter-spacing: -.01em;
      }

      .cls-5 {
        letter-spacing: -.02em;
      }

      .cls-6 {
        letter-spacing: -.02em;
      }
    </style>
  </defs>
  <path class="cls-2" d="m25.25,109.93c-1.28-5.02,1.26-7.82,5.16-10.67,22.3-16.33,43.6-33.89,63.55-53.05,14.25-13.68,27.69-28.1,38.16-45.01.88-1.41,1.39-1.74,2.43-.1,12.96,20.47,29.82,37.48,47.56,53.73,18.31,16.77,37.59,32.33,57.61,47,1.19.87,1.86,1.9,1.83,3.43-.06,3.14-.07,6.28.02,9.42.06,2.15-.75,2.31-2.42,1.38-7.95-4.43-15.91-8.82-23.88-13.22-26.15-14.44-52.31-28.84-78.42-43.34-2.58-1.43-4.68-1.28-7.2.12-34,18.87-68.05,37.66-102.08,56.46-2.07,1.14-2.29,1-2.31-1.31-.01-1.61,0-3.22,0-4.83Z"/>
  <path class="cls-2" d="m137.32,113.98c-24.12-.12-44.13-3.14-63.18-11.23-1.59-.68-4.23-1-4.32-2.53-.09-1.6,2.57-2.04,4.05-2.86,19.21-10.67,38.47-21.24,57.69-31.88,1.28-.71,2.32-.71,3.59-.01,20.07,11.11,40.15,22.18,60.23,33.28.66.36,1.71.57,1.6,1.56-.09.8-1.04.91-1.67,1.21-12.29,5.74-25.3,8.99-38.68,10.85-7.58,1.05-15.19,1.72-19.3,1.62Z"/>
  <path class="cls-2" d="m133.37,226.84c41.39,0,82.78,0,124.16,0,1.53,0,3.06-.08,4.56.36,2.78.81,4.51,3.01,4.56,5.84.05,2.86-1.56,5.06-4.35,5.98-1.25.41-2.53.44-3.82.44-83.5,0-167,0-250.5,0-.64,0-1.29,0-1.93-.07-3.47-.39-5.99-2.96-6.04-6.13-.06-3.24,2.55-6,6.06-6.34,1.04-.1,2.09-.07,3.14-.07,41.39,0,82.78,0,124.16,0Z"/>
  <path class="cls-2" d="m48.2,166.41c0,16.99,0,33.98,0,50.97,0,3.51-.16,3.66-3.69,3.67-5.39.01-10.79-.07-16.18.03-2.33.04-3.35-.7-3.34-3.17.05-29.31.08-58.62-.01-87.93-.01-4.06.9-6.78,5.06-8.58,5.3-2.29,10.2-5.48,15.28-8.27,2.61-1.43,2.88-1.27,2.89,1.82.01,17.15,0,34.3,0,51.45Z"/>
  <path class="cls-2" d="m218.55,166.22c0-17.22,0-34.44,0-51.66,0-2.88.12-2.95,2.56-1.6,6.13,3.38,12.24,6.79,18.4,10.12,1.45.79,2.05,1.79,2.05,3.45-.03,30.58-.04,61.15,0,91.73,0,1.91-.65,2.82-2.64,2.81-5.79-.05-11.59-.07-17.38.02-2.36.04-3.01-.99-3-3.2.06-17.22.03-34.44.03-51.66Z"/>
  <text class="cls-1" transform="translate(60.24 154.15)"><tspan class="cls-5" x="0" y="0">E</tspan><tspan class="cls-6" x="25.26" y="0">v</tspan><tspan x="46.31" y="0">e</tspan><tspan class="cls-3" x="68.45" y="0">n</tspan><tspan x="94.54" y="0">ts</tspan><tspan x="-20.85" y="52.09" xml:space="preserve">     </tspan><tspan class="cls-4" x="29.71" y="52.09">S</tspan><tspan x="51.5" y="52.09">to</tspan><tspan class="cls-4" x="89.44" y="52.09">r</tspan><tspan x="107.36" y="52.09">es</tspan></text>
</svg>